<?xml version="1.0" encoding="UTF-8"?>
<svg id="_레이어_2" data-name="레이어 2" xmlns="http://www.w3.org/2000/svg" viewBox="0 0 157.79 105.66">
  <defs>
    <style>
      .cls-1 {
        fill: #eae83a;
      }

      .cls-2 {
        fill: #f5c71d;
      }

      .cls-3 {
        fill: #e8403d;
      }
    </style>
  </defs>
  <g id="_레이어_1-2" data-name="레이어 1">
    <g>
      <path class="cls-1" d="m49.97,95.84L157.79,0,20.03,7.86c.26.08.4.13.4.13,3.4-1.21-7.52,62.77,29.55,87.84ZM131.61,8.98c3.39,0,6.38,2.38,8.2,6.02l-16.95,15.17c-.83-2.06-1.3-4.44-1.3-6.98,0-7.84,4.5-14.2,10.05-14.2Zm-44.71,12.13s23.74-14.55,12.26,16.34-22.47,1.79-22.47,1.79c0,0-15.06-15.83,10.21-18.13Zm-4,44.85l-28.09,24s-24.82-41.39,28.09-24ZM29.96,19.57s18.38-16.86,22.47,0c4.09,16.86-19.66,16.86-20.17,16.86s-13.79-7.41-2.3-16.86Z"/>
      <path class="cls-2" d="m8.4,8.52l11.62-.66c-1.48-.46-6.83-1.83-11.62.66Z"/>
      <path class="cls-2" d="m6.37,65.35c11.38,39.59,23.96,42.99,33.13,39.07L5.48,10.67c-5.82,5.79-9.01,20.24.89,54.68Z"/>
      <path class="cls-2" d="m20.43,7.99s-.14-.05-.4-.13l-11.62.66c-1.01.53-2,1.23-2.92,2.15l34.02,93.75c.62-.27,1.23-.57,1.82-.89l8.65-7.69C12.9,70.76,23.83,6.78,20.43,7.99Z"/>
      <path class="cls-3" d="m139.81,14.99c-1.82-3.64-4.81-6.02-8.2-6.02-5.55,0-10.05,6.36-10.05,14.2,0,2.54.48,4.92,1.3,6.98l16.95-15.17Z"/>
      <path class="cls-3" d="m54.81,89.96l28.09-24c-52.91-17.39-28.09,24-28.09,24Z"/>
      <path class="cls-3" d="m32.26,36.43c.51,0,24.26,0,20.17-16.86-4.09-16.86-22.47,0-22.47,0-11.49,9.44,1.79,16.86,2.3,16.86Z"/>
      <path class="cls-3" d="m99.16,37.45c11.49-30.89-12.26-16.34-12.26-16.34-25.28,2.3-10.21,18.13-10.21,18.13,0,0,10.98,29.11,22.47-1.79Z"/>
    </g>
  </g>
</svg>